999
DXF created by Smart Quote Generator
0
SECTION
2
HEADER
9
$ACADVER
1
AC1014
9
$INSBASE
10
0.0
20
0.0
30
0.0
9
$EXTMIN
10
0.0
20
0.0
30
0.0
9
$EXTMAX
10
1000.0
20
1000.0
30
0.0
0
ENDSEC
0
SECTION
2
TABLES
0
TABLE
2
LAYER
0
LAYER
2
0
70
0
62
7
0
LAYER
2
BEND
70
0
62
1
0
LAYER
2
CUTOUT
70
0
62
3
0
ENDTAB
0
ENDSEC
0
SECTION
2
ENTITIES
0
COMMENT
999
Heavy Duty Bracket - 1/4" Steel Plate
0
LWPOLYLINE
8
0
90
12
70
1
10
0.0
20
0.0
10
150.0
20
0.0
10
150.0
20
30.0
10
120.0
20
30.0
10
120.0
20
60.0
10
150.0
20
60.0
10
150.0
20
100.0
10
100.0
20
150.0
10
50.0
20
150.0
10
0.0
20
100.0
10
0.0
20
0.0
0
COMMENT
999
Weight reduction cutouts
0
CIRCLE
8
CUTOUT
10
30.0
20
30.0
40
10.0
0
LWPOLYLINE
8
CUTOUT
90
8
70
1
10
60.0
20
70.0
10
80.0
20
70.0
10
90.0
20
80.0
10
90.0
20
100.0
10
80.0
20
110.0
10
60.0
20
110.0
10
50.0
20
100.0
10
50.0
20
80.0
0
COMMENT
999
Mounting slots
0
LWPOLYLINE
8
0
90
4
70
1
10
120.0
20
10.0
10
140.0
20
10.0
10
140.0
20
20.0
10
120.0
20
20.0
0
LWPOLYLINE
8
0
90
4
70
1
10
10.0
20
70.0
10
20.0
20
70.0
10
20.0
20
90.0
10
10.0
20
90.0
0
COMMENT
999
Precision holes
0
CIRCLE
8
0
10
75.0
20
40.0
40
3.175
0
CIRCLE
8
0
10
75.0
20
130.0
40
3.175
0
COMMENT
999
Bend line
0
LINE
8
BEND
62
1
10
0.0
20
100.0
11
100.0
21
100.0
0
ENDSEC
0
EOF