999
DXF created by Smart Quote Generator
0
SECTION
2
HEADER
9
$ACADVER
1
AC1014
9
$INSBASE
10
0.0
20
0.0
30
0.0
9
$EXTMIN
10
0.0
20
0.0
30
0.0
9
$EXTMAX
10
1000.0
20
1000.0
30
0.0
0
ENDSEC
0
SECTION
2
TABLES
0
TABLE
2
LAYER
0
LAYER
2
0
70
0
62
7
0
LAYER
2
BEND
70
0
62
1
0
LAYER
2
CUTOUT
70
0
62
3
0
ENDTAB
0
ENDSEC
0
SECTION
2
ENTITIES
0
COMMENT
999
Electronic Enclosure - Flat Pattern - 18ga Aluminum
0
LWPOLYLINE
8
0
90
20
70
1
10
0.0
20
0.0
10
300.0
20
0.0
10
300.0
20
50.0
10
350.0
20
50.0
10
350.0
20
150.0
10
300.0
20
150.0
10
300.0
20
200.0
10
200.0
20
200.0
10
200.0
20
250.0
10
100.0
20
250.0
10
100.0
20
200.0
10
0.0
20
200.0
10
0.0
20
150.0
10
-50.0
20
150.0
10
-50.0
20
50.0
10
0.0
20
50.0
0
COMMENT
999
Display cutout
0
LWPOLYLINE
8
CUTOUT
90
4
70
1
10
100.0
20
75.0
10
200.0
20
75.0
10
200.0
20
125.0
10
100.0
20
125.0
0
COMMENT
999
Connector holes
0
CIRCLE
8
0
10
250.0
20
100.0
40
6.35
0
CIRCLE
8
0
10
50.0
20
100.0
40
6.35
0
COMMENT
999
Mounting holes
0
CIRCLE
8
0
10
25.0
20
25.0
40
2.0
0
CIRCLE
8
0
10
275.0
20
25.0
40
2.0
0
CIRCLE
8
0
10
25.0
20
175.0
40
2.0
0
CIRCLE
8
0
10
275.0
20
175.0
40
2.0
0
COMMENT
999
Bend lines
0
LINE
8
BEND
62
1
10
0.0
20
50.0
11
300.0
21
50.0
0
LINE
8
BEND
62
1
10
0.0
20
150.0
11
300.0
21
150.0
0
LINE
8
BEND
62
1
10
100.0
20
200.0
11
100.0
21
250.0
0
LINE
8
BEND
62
1
10
200.0
20
200.0
11
200.0
21
250.0
0
ENDSEC
0
EOF